<svg xmlns="http://www.w3.org/2000/svg" width="512" height="512" viewBox="0 0 512 512" data-svgdocument="" id="_NSeckdEUn8CgCMoXFdWiy" class="fl-svgdocument" x="0" y="0" style="overflow: hidden;" xmlns:xlink="http://www.w3.org/1999/xlink"><defs id="_ad9sB9fXefCUiIEZm7FuM" transform="matrix(1.0758732578051726, 0, 0, 1.0758732578051726, -18.986691966399555, -3.9908064334748925)"/><polygon id="_BgvvCxrCzQJCrTAygk4yN" points="88.385,8 0.391,160.359 176.379,160.359 " fill="#4c96d7" transform="matrix(0.43046440930925484, 0, 0, 0.6134302915312253, 255.83168309414594, 191.70349566917312)"/><polygon id="_yKsSTN6EFJpBquNp52DAI" points="88.385,8 0.391,160.359 176.379,160.359 " fill="#cf1717" transform="matrix(0.12172781032268544, 0, 0, 0.3123300258981198, 278.17932463982055, 242.77767699496098)"/><polygon id="_i97fEVs74BU2Kppb6ryfF" points="88.385,8 0.391,160.359 176.379,160.359 " fill="#168200" transform="matrix(0.37326877167136663, 0, 0, 0.5105681147536941, 162.69661983893832, 189.7573440535911)"/><circle id="__piAvsaxjazsP-GwRz68Y" cx="88.385" cy="88.385" r="88.385" fill="#f7e031" transform="matrix(0.15721313262430667, 0, 0, 0.15721313262430667, 360.42131451883023, 160.92207587124656)"/><path text="Company Name" text-anchor="middle" font-size="100" letter-spacing="0" side="left" offset="0.5" dx="0" dy="0" space="preserve" href="" font-family="Englebert" font-scale="contain" transform="matrix(0.7328117489814758, 0, 0, 0.7328117489814758, 255.460205078125, 357.4957580566406)" x="0" y="0" fill="#000000" data-fl-textpath="" id="_V_DCe4xnSPWyWlFqeZAhl" d="M-238.871640625-47.61L-247.26164062499998-47.12Q-247.26164062499998-51.61 -248.051640625-54.71Q-248.831640625-57.81 -250.021640625-59.81Q-251.221640625-61.82 -252.611640625-62.92Q-254.001640625-64.01 -255.221640625-64.53Q-256.441640625-65.04 -257.251640625-65.11Q-258.051640625-65.19 -258.101640625-65.19L-258.101640625-65.19Q-261.471640625-65.19 -264.261640625-63.35Q-267.041640625-61.52 -269.021640625-57.79Q-270.991640625-54.05 -272.091640625-48.41Q-273.191640625-42.77 -273.191640625-35.21L-273.191640625-35.21Q-273.191640625-27.64 -272.191640625-21.92Q-271.191640625-16.21 -269.381640625-12.35Q-267.581640625-8.5 -265.011640625-6.54Q-262.451640625-4.59 -259.281640625-4.59L-259.281640625-4.59Q-256.881640625-4.79 -254.831640625-6.35L-254.831640625-6.35Q-253.951640625-6.98 -253.051640625-8.01Q-252.151640625-9.03 -251.341640625-10.55Q-250.541640625-12.06 -249.85164062500002-14.09Q-249.171640625-16.11 -248.781640625-18.8L-248.781640625-18.8L-240.971640625-18.21Q-241.501640625-14.55 -242.581640625-11.74Q-243.651640625-8.94 -245.041640625-6.86Q-246.431640625-4.79 -248.021640625-3.37Q-249.611640625-1.95 -251.171640625-1.03L-251.171640625-1.03Q-254.881640625 1.12 -259.181640625 1.42L-259.181640625 1.42Q-264.891640625 1.42 -269.361640625-0.9Q-273.831640625-3.22 -276.881640625-7.79Q-279.931640625-12.35 -281.521640625-19.14Q-283.101640625-25.93 -283.101640625-34.81L-283.101640625-34.81Q-283.101640625-53.32 -276.801640625-62.77Q-270.511640625-72.22 -257.371640625-72.22L-257.371640625-72.22Q-257.221640625-72.22 -256.371640625-72.17Q-255.521640625-72.12 -254.201640625-71.83Q-252.881640625-71.53 -251.221640625-70.92Q-249.561640625-70.31 -247.85164062500002-69.14Q-246.141640625-67.97 -244.531640625-66.21Q-242.921640625-64.45 -241.651640625-61.84Q-240.381640625-59.23 -239.621640625-55.71Q-238.871640625-52.2 -238.871640625-47.61L-238.871640625-47.61ZM-192.868203125-29.1L-192.868203125-29.1Q-192.868203125-22.07 -194.508203125-16.5Q-196.138203125-10.94 -198.948203125-7.06Q-201.758203125-3.17 -205.568203125-1.1Q-209.378203125 0.98 -213.668203125 0.98L-213.668203125 0.98Q-218.018203125 0.98 -221.828203125-1.17Q-225.638203125-3.32 -228.468203125-7.28Q-231.298203125-11.23 -232.938203125-16.77Q-234.568203125-22.31 -234.568203125-29.1L-234.568203125-29.1Q-234.568203125-34.91 -233.128203125-39.72Q-231.688203125-44.53 -228.978203125-48Q-226.268203125-51.46 -222.388203125-53.39Q-218.508203125-55.32 -213.668203125-55.32L-213.668203125-55.32Q-208.298203125-55.32 -204.398203125-53.39Q-200.48820312499998-51.46 -197.928203125-48Q-195.358203125-44.53 -194.118203125-39.72Q-192.868203125-34.91 -192.868203125-29.1ZM-200.438203125-29L-200.438203125-29Q-200.438203125-33.4 -201.218203125-37.01Q-201.998203125-40.63 -203.638203125-43.24Q-205.278203125-45.85 -207.768203125-47.27Q-210.258203125-48.68 -213.668203125-48.68L-213.668203125-48.68Q-216.748203125-48.68 -219.218203125-47.27Q-221.678203125-45.85 -223.388203125-43.24Q-225.098203125-40.63 -226.028203125-37.01Q-226.948203125-33.4 -226.948203125-29L-226.948203125-29Q-226.948203125-23.88 -225.908203125-19.73Q-224.858203125-15.58 -223.068203125-12.6Q-221.288203125-9.62 -218.868203125-8.01Q-216.458203125-6.4 -213.668203125-6.4L-213.668203125-6.4Q-210.938203125-6.4 -208.518203125-7.96Q-206.108203125-9.52 -204.318203125-12.45Q-202.538203125-15.38 -201.48820312499998-19.56Q-200.438203125-23.73 -200.438203125-29ZM-136.134375-1.12L-143.65437500000002-1.42Q-143.06437499999998-5.37 -142.674375-9.08Q-142.284375-12.79 -142.094375-16.06Q-141.894375-19.34 -141.824375-22.05Q-141.744375-24.76 -141.744375-26.71L-141.744375-26.71Q-141.744375-33.94 -142.824375-37.67Q-143.894375-41.41 -146.244375-41.41L-146.244375-41.41Q-148.044375-41.41 -150.31437499999998-38.5Q-152.584375-35.6 -154.834375-29.49L-154.834375-29.49Q-154.734375-28.08 -154.684375-26.49Q-154.634375-24.9 -154.634375-23.1L-154.634375-23.1Q-154.634375-18.41 -154.984375-12.89Q-155.324375-7.37 -156.254375-1.12L-156.254375-1.12L-163.424375-0.68Q-162.744375-7.57 -162.544375-13.04Q-162.354375-18.51 -162.354375-22.51L-162.354375-22.51Q-162.354375-28.17 -162.644375-31.98Q-162.944375-35.79 -163.40437500000002-38.11Q-163.864375-40.43 -164.454375-41.41Q-165.034375-42.38 -165.624375-42.38L-165.624375-42.38Q-166.694375-42.38 -168.144375-40.14Q-169.584375-37.89 -171.634375-33.5L-171.634375-33.5Q-173.684375-29.05 -174.754375-24.95Q-175.834375-20.85 -176.444375-16.89Q-177.054375-12.94 -177.394375-9.08Q-177.734375-5.22 -178.224375-1.32L-178.224375-1.32L-184.914375-1.12Q-184.814375-4.64 -184.814375-8.06Q-184.814375-11.47 -184.814375-14.7L-184.814375-14.7Q-184.814375-22.46 -184.964375-28.91Q-185.104375-35.35 -185.254375-40.09L-185.254375-40.09Q-185.444375-45.61 -185.644375-50L-185.644375-50L-176.754375-49.61L-176.754375-33.89Q-176.364375-35.25 -175.734375-37.04Q-175.094375-38.82 -174.264375-40.7Q-173.434375-42.58 -172.334375-44.41Q-171.244375-46.24 -169.924375-47.68Q-168.604375-49.12 -167.044375-50Q-165.474375-50.88 -163.624375-50.88L-163.624375-50.88Q-161.034375-50.88 -158.864375-48.17Q-156.694375-45.46 -155.714375-39.89L-155.714375-39.89Q-153.90437500000002-43.31 -152.054375-45.21Q-150.194375-47.12 -148.65437500000002-48.02Q-147.114375-48.93 -146.094375-49.12Q-145.06437499999998-49.32 -144.824375-49.32L-144.824375-49.32Q-142.824375-49.32 -140.964375-48.39Q-139.114375-47.46 -137.674375-44.85Q-136.234375-42.24 -135.374375-37.6Q-134.524375-32.96 -134.524375-25.59L-134.524375-25.59Q-134.524375-20.75 -134.914375-14.72Q-135.304375-8.69 -136.134375-1.12L-136.134375-1.12ZM-81.839296875-28.42L-81.839296875-28.42Q-81.839296875-22.31 -83.179296875-16.72Q-84.51929687500001-11.13 -87.089296875-6.88Q-89.649296875-2.64 -93.359296875-0.12Q-97.06929687499999 2.39 -101.809296875 2.39L-101.809296875 2.39Q-105.029296875 2.25 -108.059296875 1.07L-108.059296875 1.07Q-109.329296875 0.59 -110.669296875-0.17Q-112.009296875-0.93 -113.309296875-2.03Q-114.599296875-3.13 -115.719296875-4.61Q-116.849296875-6.1 -117.729296875-8.11L-117.729296875-8.11L-117.729296875 17.58L-124.609296875 17.58L-124.609296875-51.81L-116.939296875-51.81L-117.629296875-44.29Q-116.599296875-46 -115.379296875-47.31Q-114.159296875-48.63 -112.839296875-49.61Q-111.519296875-50.59 -110.179296875-51.25Q-108.839296875-51.9 -107.56929687499999-52.34L-107.56929687499999-52.34Q-104.639296875-53.37 -101.609296875-53.52L-101.609296875-53.52Q-97.359296875-53.52 -93.779296875-51.78Q-90.189296875-50.05 -87.56929687499999-46.78Q-84.959296875-43.51 -83.449296875-38.87Q-81.929296875-34.23 -81.839296875-28.42ZM-103.519296875-5.08L-103.519296875-5.08Q-100.589296875-5.08 -98.359296875-6.18Q-96.139296875-7.28 -94.529296875-9.11Q-92.919296875-10.94 -91.849296875-13.33Q-90.76929687500001-15.72 -90.109296875-18.36Q-89.449296875-21 -89.189296875-23.66Q-88.919296875-26.32 -88.919296875-28.71L-88.919296875-28.71Q-88.919296875-33.74 -90.279296875-37.23Q-91.649296875-40.72 -93.699296875-42.92Q-95.749296875-45.12 -98.169296875-46.12Q-100.589296875-47.12 -102.73929687500001-47.12L-102.73929687500001-47.12Q-104.929296875-47.12 -107.499296875-45.97Q-110.059296875-44.82 -112.259296875-42.38Q-114.449296875-39.94 -115.889296875-36.16Q-117.329296875-32.37 -117.329296875-27.1L-117.329296875-27.1Q-117.329296875-22.8 -116.679296875-19.53Q-116.019296875-16.26 -114.919296875-13.79Q-113.81929687499999-11.33 -112.379296875-9.67Q-110.939296875-8.01 -109.399296875-6.98Q-107.859296875-5.96 -106.349296875-5.52Q-104.829296875-5.08 -103.519296875-5.08ZM-36.135703125-27.39L-36.135703125-27.39Q-36.225703125-22.46 -36.425703125-17.58L-36.425703125-17.58Q-36.525703125-15.48 -36.625703125-13.18Q-36.715703125-10.89 -36.845703125-8.57Q-36.965703125-6.25 -37.135703125-4Q-37.305703125-1.76 -37.455703125 0.2L-37.455703125 0.2L-44.135703125 0Q-44.045703125-1.42 -43.995703125-2.78Q-43.945703125-4.15 -43.945703125-5.52L-43.945703125-5.52Q-46.145703125-3.17 -48.585703124999995-1.86Q-51.025703125-0.54 -53.225703124999995 0.15L-53.225703124999995 0.15Q-55.765703125 0.98 -58.255703125 1.22L-58.255703125 1.22Q-58.785703125 1.32 -59.255703125 1.32Q-59.715703125000005 1.32 -60.255703125 1.32L-60.255703125 1.32Q-63.675703125 1.32 -66.795703125 0.37Q-69.925703125-0.59 -72.335703125-2.54Q-74.755703125-4.49 -76.195703125-7.45Q-77.635703125-10.4 -77.635703125-14.4L-77.635703125-14.4Q-77.635703125-17.92 -76.245703125-21.02Q-74.855703125-24.12 -72.335703125-26.44Q-69.825703125-28.76 -66.255703125-30.13Q-62.695703125-31.49 -58.345703125-31.59L-58.345703125-31.59Q-58.205703125-31.59 -56.685703125-31.49Q-55.175703125-31.4 -53.005703125-30.88Q-50.825703125000004-30.37 -48.315703125-29.27Q-45.805703125-28.17 -43.655703125-26.22L-43.655703125-26.22Q-43.655703125-28.42 -43.745703125-30.86Q-43.845703125-33.3 -44.215703125-35.67Q-44.575703125-38.04 -45.365703125-40.19Q-46.145703125-42.33 -47.485703125-43.97Q-48.825703125000004-45.61 -50.875703125-46.56Q-52.925703125-47.51 -55.855703125000005-47.51L-55.855703125000005-47.51Q-58.155703125-47.51 -60.055703125-46.63Q-61.965703125000005-45.75 -63.425703125-44.24Q-64.895703125-42.72 -65.865703125-40.65Q-66.845703125-38.57 -67.335703125-36.18L-67.335703125-36.18L-75.535703125-38.82Q-74.955703125-41.6 -73.855703125-43.75Q-72.755703125-45.9 -71.365703125-47.51Q-69.965703125-49.12 -68.38570312499999-50.27Q-66.795703125-51.42 -65.235703125-52.2L-65.235703125-52.2Q-61.575703125000004-54 -57.325703125000004-54.39L-57.325703125000004-54.39Q-51.465703125000005-54.39 -47.415703125-52.64Q-43.355703125-50.88 -40.845703125-47.46Q-38.325703125-44.04 -37.235703125-39.01Q-36.135703125-33.98 -36.135703125-27.39ZM-43.745703125-13.82L-43.745703125-13.82Q-43.745703125-14.79 -43.705703125-15.75Q-43.655703125-16.7 -43.655703125-17.58L-43.655703125-17.58Q-46.235703125-20.21 -48.755703125-21.58Q-51.265703125-22.95 -53.315703125-23.63L-53.315703125-23.63Q-55.665703125-24.41 -57.865703124999996-24.51L-57.865703124999996-24.51Q-60.885703125-24.51 -63.065703125-23.66Q-65.235703125-22.8 -66.625703125-21.39Q-68.015703125-19.97 -68.675703125-18.16Q-69.335703125-16.36 -69.335703125-14.4L-69.335703125-14.4Q-69.335703125-12.4 -68.605703125-10.79Q-67.875703125-9.18 -66.525703125-8.06Q-65.185703125-6.93 -63.255703125-6.32Q-61.325703125000004-5.71 -58.935703125-5.71L-58.935703125-5.71Q-56.595703125-5.91 -54.055703125-6.79L-54.055703125-6.79Q-51.855703125000005-7.57 -49.195703125-9.2Q-46.535703125-10.84 -43.745703125-13.82ZM 10.251718750000002-0.2L 3.561718749999997 0.2Q 3.1717187499999966-7.23  2.811718749999997-13.16Q 2.4417187499999997-19.09  2.1517187500000006-23.29L 2.1517187500000006-23.29Q 1.8017187499999991-28.17  1.4617187500000028-31.98L 1.4617187500000028-31.98Q 1.0717187500000023-37.89 -0.028281249999999147-40.89Q-1.118281249999999-43.9 -2.82828125-43.9L-2.82828125-43.9Q-4.538281250000001-43.9 -6.298281249999999-41.75Q-8.05828125-39.6 -9.768281250000001-36.04Q-11.478281249999998-32.47 -13.00828125-27.91Q-14.548281249999999-23.34 -15.84828125-18.51Q-17.13828125-13.67 -18.08828125-8.94Q-19.03828125-4.2 -19.52828125-0.39L-19.52828125-0.39L-26.21828125-0.2Q-25.92828125-8.3 -25.92828125-15.58L-25.92828125-15.58Q-25.92828125-23.19 -26.16828125-29.52Q-26.41828125-35.84 -26.70828125-40.43L-26.70828125-40.43Q-27.04828125-45.8 -27.43828125-50.1L-27.43828125-50.1L-18.01828125-49.71L-18.01828125-30.08Q-16.89828125-33.3 -16.01828125-35.5Q-15.138281249999999-37.7 -14.548281249999999-39.06L-14.548281249999999-39.06Q-13.868281249999999-40.67 -13.428281250000001-41.6L-13.428281250000001-41.6Q-12.158281250000002-43.99 -10.64828125-45.87Q-9.12828125-47.75 -7.498281250000002-49.05Q-5.858281250000001-50.34 -4.178281250000001-51.03Q-2.48828125-51.71 -0.9282812500000013-51.71L-0.9282812500000013-51.71Q 0.6317187499999974-51.71  2.001718750000002-51.03Q 3.3717187499999994-50.34  4.421718749999997-48.88Q 5.471718750000001-47.41  6.221718750000001-45.14Q 6.981718749999999-42.87  7.371718749999999-39.7L 7.371718749999999-39.7Q 8.15171875-34.42  8.741718749999997-28.17L 8.741718749999997-28.17Q 9.281718750000003-22.8  9.72171875-15.63Q 10.15171875-8.45  10.251718750000002-0.2L 10.251718750000002-0.2ZM 48.87953125-51.22L 56.24953125-51.22Q 55.95953125-47.8  55.65953125-43.82Q 55.36953125-39.84  55.14953125-35.69Q 54.92953125-31.54  54.73953125-27.34Q 54.53953125-23.14  54.39953125-19.29L 54.39953125-19.29Q 53.99953125-10.21  53.75953125-0.98L 53.75953125-0.98Q 53.51953125 4.1  52.21953125 8.4Q 50.92953125 12.7  48.50953125 15.82Q 46.08953125 18.95  42.529531250000005 20.73Q 38.96953125 22.51  34.17953125 22.51L 34.17953125 22.51Q 31.09953125 22.41  28.16953125 21.73L 28.16953125 21.73Q 26.899531250000003 21.44  25.58953125 20.97Q 24.26953125 20.51  22.96953125 19.85Q 21.67953125 19.19  20.47953125 18.29Q 19.28953125 17.38  18.35953125 16.21L 18.35953125 16.21L 22.16953125 10.69Q 23.779531249999998 12.55  25.639531249999997 13.57Q 27.48953125 14.6  29.17953125 15.09Q 30.85953125 15.58  32.17953125 15.7Q 33.499531250000004 15.82  33.97953125 15.82L 33.97953125 15.82Q 37.15953125 15.82  39.42953125 14.58Q 41.69953125 13.33  43.20953125 11.16Q 44.72953125 8.98  45.60953125 5.98Q 46.47953125 2.98  46.94953125-0.51Q 47.40953125-4  47.52953125-7.89Q 47.65953125-11.77  47.65953125-15.72L 47.65953125-15.72L 47.65953125-16.31Q 46.18953125-11.82  44.45953125-8.72Q 42.72953125-5.62  40.96953125-3.56Q 39.20953125-1.51  37.54953125-0.37Q 35.889531250000005 0.78  34.56953125 1.32Q 33.249531250000004 1.86  32.34953125 1.98Q 31.44953125 2.1  31.24953125 2.1L 31.24953125 2.1Q 27.58953125 2.1  25.09953125 0.07Q 22.60953125-1.95  21.08953125-5.76Q 19.57953125-9.57  18.91953125-15.04Q 18.259531250000002-20.51  18.259531250000002-27.39L 18.259531250000002-27.39Q 18.259531250000002-32.91  18.59953125-39.16Q 18.94953125-45.41  19.57953125-52.49L 19.57953125-52.49L 28.46953125-51.81Q 27.19953125-43.16  26.639531249999997-36.69Q 26.06953125-30.22  26.06953125-25.39L 26.06953125-25.39Q 26.06953125-20.51  26.48953125-17.14Q 26.899531250000003-13.77  27.53953125-11.52Q 28.16953125-9.28  28.92953125-8.03Q 29.68953125-6.79  30.36953125-6.18Q 31.05953125-5.57  31.58953125-5.44Q 32.12953125-5.32  32.279531250000005-5.32L 32.279531250000005-5.32Q 34.12953125-5.32  35.81953125-7.03Q 37.499531250000004-8.74  38.98953125-11.57Q 40.47953125-14.4  41.76953125-18.09Q 43.06953125-21.78  44.139531250000005-25.78Q 45.21953125-29.79  46.06953125-33.79Q 46.91953125-37.79  47.50953125-41.26Q 48.09953125-44.73  48.43953125-47.34Q 48.77953125-49.95  48.87953125-51.22L 48.87953125-51.22ZM 116.844296875-69.82L 128.274296875-69.68Q 126.274296875-52.25  125.17429687500001-34.89Q 124.074296875-17.53  123.734296875 0.1L 123.734296875 0.1L 115.964296875 0.1L 97.654296875-48.58Q 96.484296875-24.37  96.334296875-0.1L 96.334296875-0.1L 88.474296875 0Q 88.574296875-5.18  88.574296875-10.35Q 88.574296875-15.53  88.574296875-20.8L 88.574296875-20.8Q 88.574296875-45.02  87.844296875-69.19L 87.844296875-69.19L 98.734296875-68.99L 116.16429687499999-16.5Q 116.354296875-20.41  116.504296875-25.07Q 116.654296875-29.74  116.774296875-34.81Q 116.89429687500001-39.89  116.964296875-45.21Q 117.044296875-50.54  117.044296875-55.71L 117.044296875-55.71Q 117.044296875-59.38  116.994296875-62.92Q 116.94429687499999-66.46  116.844296875-69.82L 116.844296875-69.82ZM 174.36234375-27.39L 174.36234375-27.39Q 174.27234375-22.46  174.07234375000002-17.58L 174.07234375000002-17.58Q 173.97234375-15.48  173.87234375-13.18Q 173.78234375-10.89  173.65234375-8.57Q 173.53234375-6.25  173.36234375-4Q 173.19234375-1.76  173.04234375 0.2L 173.04234375 0.2L 166.36234375 0Q 166.45234375-1.42  166.50234375-2.78Q 166.55234375-4.15  166.55234375-5.52L 166.55234375-5.52Q 164.35234375-3.17  161.91234375-1.86Q 159.47234375-0.54  157.27234375 0.15L 157.27234375 0.15Q 154.73234374999998 0.98  152.24234375 1.22L 152.24234375 1.22Q 151.71234375 1.32  151.24234375 1.32Q 150.78234375 1.32  150.24234375 1.32L 150.24234375 1.32Q 146.82234375 1.32  143.70234375 0.37Q 140.57234375-0.59  138.16234375-2.54Q 135.74234375-4.49  134.30234375-7.45Q 132.86234375-10.4  132.86234375-14.4L 132.86234375-14.4Q 132.86234375-17.92  134.25234375-21.02Q 135.64234375-24.12  138.16234375-26.44Q 140.67234375-28.76  144.24234375-30.13Q 147.80234375-31.49  152.15234375-31.59L 152.15234375-31.59Q 152.29234375-31.59  153.81234375-31.49Q 155.32234375000002-31.4  157.49234375-30.88Q 159.67234375-30.37  162.18234375-29.27Q 164.69234375-28.17  166.84234375-26.22L 166.84234375-26.22Q 166.84234375-28.42  166.75234375-30.86Q 166.65234375-33.3  166.28234375-35.67Q 165.92234375-38.04  165.13234375-40.19Q 164.35234375-42.33  163.01234375-43.97Q 161.67234375-45.61  159.62234375-46.56Q 157.57234375000002-47.51  154.64234375-47.51L 154.64234375-47.51Q 152.34234375-47.51  150.44234375-46.63Q 148.53234375-45.75  147.07234375-44.24Q 145.60234375-42.72  144.63234375-40.65Q 143.65234375-38.57  143.16234375-36.18L 143.16234375-36.18L 134.96234375-38.82Q 135.54234375-41.6  136.64234375-43.75Q 137.74234375-45.9  139.13234375-47.51Q 140.53234375-49.12  142.11234375-50.27Q 143.70234375-51.42  145.26234375-52.2L 145.26234375-52.2Q 148.92234375-54  153.17234375-54.39L 153.17234375-54.39Q 159.03234375-54.39  163.08234375-52.64Q 167.14234375-50.88  169.65234375-47.46Q 172.17234375-44.04  173.26234375-39.01Q 174.36234375-33.98  174.36234375-27.39ZM 166.75234375-13.82L 166.75234375-13.82Q 166.75234375-14.79  166.79234375-15.75Q 166.84234375-16.7  166.84234375-17.58L 166.84234375-17.58Q 164.26234375-20.21  161.74234375-21.58Q 159.23234374999998-22.95  157.18234375-23.63L 157.18234375-23.63Q 154.83234375-24.41  152.63234375-24.51L 152.63234375-24.51Q 149.61234375-24.51  147.43234375-23.66Q 145.26234375-22.8  143.87234375-21.39Q 142.48234375-19.97  141.82234375-18.16Q 141.16234375-16.36  141.16234375-14.4L 141.16234375-14.4Q 141.16234375-12.4  141.89234375-10.79Q 142.62234375-9.18  143.97234375-8.06Q 145.31234375-6.93  147.24234375-6.32Q 149.17234375-5.71  151.56234375-5.71L 151.56234375-5.71Q 153.90234375-5.91  156.44234375-6.79L 156.44234375-6.79Q 158.64234375-7.57  161.30234375-9.2Q 163.96234375-10.84  166.75234375-13.82ZM 232.859765625-1.12L 225.33976562499998-1.42Q 225.92976562500002-5.37  226.319765625-9.08Q 226.709765625-12.79  226.899765625-16.06Q 227.099765625-19.34  227.169765625-22.05Q 227.249765625-24.76  227.249765625-26.71L 227.249765625-26.71Q 227.249765625-33.94  226.169765625-37.67Q 225.099765625-41.41  222.749765625-41.41L 222.749765625-41.41Q 220.949765625-41.41  218.67976562500002-38.5Q 216.409765625-35.6  214.159765625-29.49L 214.159765625-29.49Q 214.259765625-28.08  214.309765625-26.49Q 214.359765625-24.9  214.359765625-23.1L 214.359765625-23.1Q 214.359765625-18.41  214.009765625-12.89Q 213.669765625-7.37  212.739765625-1.12L 212.739765625-1.12L 205.569765625-0.68Q 206.249765625-7.57  206.449765625-13.04Q 206.639765625-18.51  206.639765625-22.51L 206.639765625-22.51Q 206.639765625-28.17  206.349765625-31.98Q 206.049765625-35.79  205.58976562499998-38.11Q 205.129765625-40.43  204.539765625-41.41Q 203.959765625-42.38  203.369765625-42.38L 203.369765625-42.38Q 202.299765625-42.38  200.849765625-40.14Q 199.409765625-37.89  197.359765625-33.5L 197.359765625-33.5Q 195.309765625-29.05  194.239765625-24.95Q 193.159765625-20.85  192.549765625-16.89Q 191.939765625-12.94  191.599765625-9.08Q 191.259765625-5.22  190.769765625-1.32L 190.769765625-1.32L 184.079765625-1.12Q 184.179765625-4.64  184.179765625-8.06Q 184.179765625-11.47  184.179765625-14.7L 184.179765625-14.7Q 184.179765625-22.46  184.029765625-28.91Q 183.889765625-35.35  183.739765625-40.09L 183.739765625-40.09Q 183.549765625-45.61  183.349765625-50L 183.349765625-50L 192.239765625-49.61L 192.239765625-33.89Q 192.629765625-35.25  193.259765625-37.04Q 193.899765625-38.82  194.729765625-40.7Q 195.559765625-42.58  196.659765625-44.41Q 197.749765625-46.24  199.069765625-47.68Q 200.389765625-49.12  201.949765625-50Q 203.519765625-50.88  205.369765625-50.88L 205.369765625-50.88Q 207.959765625-50.88  210.129765625-48.17Q 212.299765625-45.46  213.279765625-39.89L 213.279765625-39.89Q 215.08976562499998-43.31  216.939765625-45.21Q 218.799765625-47.12  220.33976562499998-48.02Q 221.879765625-48.93  222.899765625-49.12Q 223.92976562500002-49.32  224.169765625-49.32L 224.169765625-49.32Q 226.169765625-49.32  228.029765625-48.39Q 229.879765625-47.46  231.319765625-44.85Q 232.759765625-42.24  233.619765625-37.6Q 234.469765625-32.96  234.469765625-25.59L 234.469765625-25.59Q 234.469765625-20.75  234.079765625-14.72Q 233.689765625-8.69  232.859765625-1.12L 232.859765625-1.12ZM 284.57484375-28.71L 249.07484375-28.71Q 248.97484375-28.17  249.02484375-27.66Q 249.07484375-27.15  249.07484375-26.61L 249.07484375-26.61Q 249.07484375-21.73  250.04484375-18.38Q 251.02484375-15.04  252.51484375-12.84Q 254.00484375-10.64  255.78484375-9.47Q 257.56484375-8.3  259.13484375-7.74Q 260.69484375-7.18  261.81484375-7.08Q 262.93484375-6.98  263.18484375-6.98L 263.18484375-6.98Q 263.13484375-6.98  263.86484375-7.06Q 264.59484375-7.13  265.79484375-7.45Q 266.99484375-7.76  268.50484375-8.45Q 270.01484375-9.13  271.50484375-10.38Q 272.99484375-11.62  274.31484375-13.5Q 275.63484375-15.38  276.46484375-18.12L 276.46484375-18.12L 282.47484375-16.41Q 281.73484375-13.38  280.51484375-11.04Q 279.29484375-8.69  277.80484375000003-6.93Q 276.31484375-5.18  274.63484375-3.93Q 272.94484375-2.69  271.33484375-1.9L 271.33484375-1.9Q 267.52484375 0.05  263.18484375 0.39L 263.18484375 0.39Q 258.88484375 0.39  255.59484375-0.9Q 252.29484375-2.2  249.90484375-4.39Q 247.50484375-6.59  245.89484375-9.42Q 244.28484375-12.26  243.33484375-15.36Q 242.38484375-18.46  241.96484375-21.56Q 241.55484375-24.66  241.55484375-27.39L 241.55484375-27.39Q 241.55484375-29.93  241.84484375-32.96Q 242.13484375-35.99  242.96484375-39.06Q 243.79484375-42.14  245.31484375-45.02Q 246.82484375-47.9  249.26484375-50.15Q 251.70484375-52.39  255.20484375-53.74Q 258.69484375-55.08  263.47484375-55.08L 263.47484375-55.08Q 264.30484375-55.08  266.18484375-54.91Q 268.06484375-54.74  270.41484375-53.93Q 272.75484375-53.13  275.24484375-51.49Q 277.73484375-49.85  279.80484375000003-46.92Q 281.88484375-43.99  283.22484375-39.55Q 284.57484375-35.11  284.57484375-28.71L 284.57484375-28.71ZM 263.18484375-47.61L 263.18484375-47.61Q 259.81484375-47.36  256.98484375-46L 256.98484375-46Q 255.76484375-45.41  254.56484375-44.51Q 253.36484375-43.6  252.34484375-42.31Q 251.31484375-41.02  250.53484375-39.26Q 249.75484375-37.5  249.46484375-35.21L 249.46484375-35.21L 276.26484375-35.21Q 275.97484375-38.09  274.70484375-40.38Q 273.43484375-42.68  271.60484375-44.29Q 269.77484375-45.9  267.55484375-46.75Q 265.33484375-47.61  263.18484375-47.61Z"></path><g id="_IgNMwPYraIRTUHe8W--jb" transform="matrix(0.8300425950859495, 0, 0, 0.8300425950859495, 44.33758969429069, 59.87012587159208)"><path id="_W7ObXJ4BSZ9pGU5wXxYoj" d="M81.44,86.337h-6.885L51.302,25.878l2.044-5.557c0.313-0.856-0.128-1.807-0.986-2.122      c-0.851-0.313-1.809,0.125-2.122,0.981l-0.82,2.23l-0.988-2.31c-0.359-0.837-1.333-1.228-2.17-0.869      c-0.841,0.359-1.231,1.331-0.872,2.17l2.363,5.524l-23.233,60.41h-7.724c-0.915,0-1.654,0.74-1.654,1.654      s0.739,1.654,1.654,1.654h8.862h12.092h27.648h8.022h8.022c0.915,0,1.654-0.74,1.654-1.654S82.355,86.337,81.44,86.337z       M40.865,86.337l8.671-22.548l8.671,22.548H40.865z M28.062,86.337l1.947-5.061h2.927c0.684,0,1.239-0.554,1.239-1.238      c0-0.687-0.556-1.24-1.239-1.24h-1.974l0.642-1.675h4.064c0.685,0,1.239-0.557,1.239-1.242c0-0.684-0.555-1.238-1.239-1.238      H32.56l15.821-41.136v26.836L38.38,86.337h-0.633H28.062z M65.396,86.337h-4.703L50.691,60.343V33.507l20.319,52.83H65.396z" fill="#000000" transform="matrix(1.8038442134857178, 0, 0, 1.8038442134857178, 203.6735076904297, 121.3954849243164)"/><path id="_mtrrfKQOt4C6tASPHFx_r" fill="#000000" d="M49.001,22.768c-1.641,0-2.97-1.329-2.97-2.97V2.97c0-1.64,1.329-2.97,2.97-2.97  c1.64,0,2.969,1.33,2.969,2.97v16.829C51.97,21.439,50.641,22.768,49.001,22.768z" transform="matrix(0.9149097800254822, 0, 0, 0.9149097800254822, 355.5015563964844, 94.13797760009766)"/><path id="_YCWn-DGgPy-EBZOCAs6xH" fill="#000000" d="M49.001,98c-1.641,0-2.97-1.329-2.97-2.97V78.203c0-1.64,1.329-2.97,2.97-2.97c1.64,0,2.969,1.33,2.969,2.97  v16.828C51.97,96.671,50.641,98,49.001,98z" transform="matrix(0.9149097800254822, 0, 0, 0.9149097800254822, 355.5015563964844, 93.92372131347656)"/><path id="_xiOEINHfOh5V-n2289ooQ" fill="#000000" d="M95.032,51.968H78.203c-1.64,0-2.97-1.328-2.97-2.969c0-1.64,1.33-2.97,2.97-2.97h16.829  c1.64,0,2.97,1.33,2.97,2.97C98.001,50.64,96.671,51.968,95.032,51.968z" transform="matrix(0.9149097800254822, 0, 0, 0.9149097800254822, 354.85858154296875, 93.65345001220703)"/><path id="_8wwx5EkmPpGsBRCjo-6rm" fill="#000000" d="M19.798,51.968H2.969C1.329,51.968,0,50.64,0,49c0-1.64,1.329-2.97,2.969-2.97h16.829  c1.64,0,2.97,1.33,2.97,2.97C22.768,50.64,21.438,51.968,19.798,51.968z" transform="matrix(0.9149097800254822, 0, 0, 0.9149097800254822, 355.0735778808594, 93.65253448486328)"/><path id="_RTlekEmWEvbfrQ0_IfGP0" fill="#000000" d="M81.549,84.519c-0.76,0-1.52-0.29-2.1-0.87L67.55,71.75c-1.16-1.16-1.16-3.039,0-4.198  c1.159-1.16,3.039-1.16,4.199,0L83.649,79.45c1.16,1.16,1.16,3.04,0,4.199C83.07,84.229,82.309,84.519,81.549,84.519z" transform="matrix(0.9149097800254822, 0, 0, 0.9149097800254822, 354.9074401855469, 93.9705581665039)"/><path id="_bs0uH4XzALQNltfFftFK9" fill="#000000" d="M28.353,31.321c-0.759,0-1.519-0.29-2.099-0.87l-11.9-11.899c-1.16-1.159-1.16-3.039,0-4.199  c1.16-1.16,3.04-1.16,4.2,0l11.9,11.899c1.16,1.159,1.16,3.04,0,4.2C29.873,31.031,29.113,31.321,28.353,31.321z" transform="matrix(0.9149097800254822, 0, 0, 0.9149097800254822, 355.0878601074219, 94.15335083007812)"/><path id="_u8FEJi1HVyWa68ZplAy2B" fill="#000000" d="M16.454,84.521c-0.76,0-1.52-0.29-2.1-0.87c-1.16-1.159-1.16-3.039,0-4.199l11.899-11.899  c1.16-1.16,3.039-1.16,4.199,0c1.16,1.159,1.16,3.038,0,4.198l-11.899,11.9C17.975,84.231,17.214,84.521,16.454,84.521z" transform="matrix(0.9149097800254822, 0, 0, 0.9149097800254822, 355.0878601074219, 93.96965026855469)"/><path id="_DelgUmeOU2oXaYv7BxCKe" fill="#000000" d="M69.652,31.324c-0.76,0-1.521-0.29-2.1-0.87c-1.16-1.159-1.16-3.041,0-4.2l11.899-11.9  c1.16-1.161,3.04-1.161,4.199,0c1.16,1.159,1.16,3.04,0,4.199l-11.899,11.9C71.171,31.034,70.412,31.324,69.652,31.324z" transform="matrix(0.9149097800254822, 0, 0, 0.9149097800254822, 354.9056091308594, 94.15312194824219)"/><path id="_hUKQYueFe6UXkX0SdyEgE" fill="#000000" d="M49.001,68.362C38.326,68.362,29.64,59.676,29.64,49c0-10.675,8.686-19.361,19.361-19.361  c10.676,0,19.361,8.686,19.361,19.361C68.362,59.676,59.677,68.362,49.001,68.362z M49.001,35.579  c-7.401,0-13.422,6.02-13.422,13.421c0,7.4,6.021,13.422,13.422,13.422c7.401,0,13.421-6.021,13.421-13.422  C62.422,41.599,56.402,35.579,49.001,35.579z" transform="matrix(0.9149097800254822, 0, 0, 0.9149097800254822, 355.40203857421875, 94.46790313720703)"/><path id="_09NgMxOIl4MLCCHelL8E_" d="M73.138,70.965H27.361c-0.576,0-1.112-0.294-1.422-0.779s-0.351-1.096-0.108-1.618l23.282-50.209    c0.276-0.596,0.874-0.978,1.531-0.978c0.003,0,0.007,0,0.011,0c0.661,0.004,1.259,0.394,1.529,0.998l22.495,50.209    c0.234,0.522,0.188,1.127-0.124,1.607C74.244,70.675,73.71,70.965,73.138,70.965z M30.003,67.59h40.53L50.617,23.137L30.003,67.59    z" fill="#000000" transform="matrix(1.8038442134857178, 0, 0, 1.8038442134857178, 87.26446533203125, 126.29582977294922)"/><path id="_8hQOo6fyCyW9BbK2Qq7cC" d="M50.284,86.041c-0.865,0-1.566-0.701-1.566-1.566V39.808c0-0.865,0.701-1.566,1.566-1.566s1.566,0.701,1.566,1.566v44.667    C51.85,85.339,51.148,86.041,50.284,86.041z" fill="#000000" transform="matrix(1.8038442134857178, 0, 0, 1.8038442134857178, 87.18485260009766, 126.54656982421875)"/><path id="_7v2tDBv7vSKClTboehG8W" d="M50.272,67.604c-0.5,0-0.996-0.222-1.329-0.646c-0.575-0.733-0.447-1.794,0.286-2.369l9.643-7.566    c0.732-0.575,1.793-0.447,2.369,0.286c0.575,0.733,0.447,1.794-0.286,2.369l-9.643,7.566    C51.004,67.486,50.637,67.604,50.272,67.604z M49.786,63.206c-0.43,0-0.86-0.164-1.19-0.491L39.629,53.8    c-0.661-0.657-0.664-1.726-0.007-2.387c0.658-0.661,1.725-0.664,2.387-0.007l8.967,8.915c0.661,0.657,0.664,1.726,0.007,2.387    C50.653,63.04,50.22,63.206,49.786,63.206z M50.271,56.988c-0.434,0-0.867-0.166-1.196-0.498    c-0.657-0.661-0.654-1.729,0.006-2.386l8.286-8.241c0.661-0.658,1.73-0.654,2.386,0.006c0.657,0.661,0.654,1.729-0.006,2.386    l-8.286,8.241C51.132,56.825,50.702,56.988,50.271,56.988z M49.899,51.012c-0.565,0-1.118-0.284-1.438-0.801l-5.129-8.306    c-0.49-0.793-0.244-1.833,0.549-2.322c0.792-0.49,1.833-0.244,2.323,0.549l5.129,8.306c0.49,0.793,0.244,1.833-0.549,2.322    C50.508,50.931,50.202,51.012,49.899,51.012z" fill="#000000" transform="matrix(1.8038442134857178, 0, 0, 1.8038442134857178, 87.34135437011719, 125.48433685302734)"/><path id="_y8-tZ3ixPD2D-qgxeWBTI" d="M50.284,86.041c-0.865,0-1.566-0.701-1.566-1.566V39.808c0-0.865,0.701-1.566,1.566-1.566s1.566,0.701,1.566,1.566v44.667    C51.85,85.339,51.148,86.041,50.284,86.041z" fill="#000000" transform="matrix(0, 1.8038442134857178, -5.079986095428467, 0, 568.984619140625, 188.82247924804688)"/></g></svg>